<svg xmlns="http://www.w3.org/2000/svg" viewBox="0 0 1520 1050" font-family="'Segoe UI', system-ui, -apple-system, sans-serif">
  <defs>
    <marker id="a" markerWidth="10" markerHeight="7" refX="9" refY="3.5" orient="auto" fill="#64748b">
      <polygon points="0 0, 10 3.5, 0 7"/>
    </marker>
    <marker id="ad" markerWidth="10" markerHeight="7" refX="9" refY="3.5" orient="auto" fill="#94a3b8">
      <polygon points="0 0, 10 3.5, 0 7"/>
    </marker>
    <filter id="s"><feDropShadow dx="0" dy="1" stdDeviation="2" flood-opacity="0.08"/></filter>
  </defs>

  <!-- Canvas -->
  <rect width="1520" height="1030" rx="12" fill="#f8fafc"/>

  <!-- Title -->
  <text x="760" y="36" text-anchor="middle" font-size="20" font-weight="700" fill="#1e293b">Claude Code — Under the Hood</text>
  <text x="760" y="54" text-anchor="middle" font-size="11" fill="#94a3b8">how your instructions, agents, tools, and messages become an API request</text>

  <!-- ═══════════════════════════════════════════ -->
  <!-- HUMAN (top center)                          -->
  <!-- ═══════════════════════════════════════════ -->
  <rect x="415" y="72" width="200" height="48" rx="24" fill="#f1f5f9" stroke="#cbd5e1" stroke-width="1.2" filter="url(#s)"/>
  <text x="456" y="100" font-size="18">👤</text>
  <text x="480" y="96" font-size="14" font-weight="600" fill="#334155">Human</text>
  <text x="480" y="112" font-size="9" fill="#94a3b8">types prompt or /command</text>

  <!-- Arrow: human → context (straight down) -->
  <line x1="515" y1="120" x2="515" y2="168" stroke="#64748b" stroke-width="1.3" marker-end="url(#a)"/>


  <!-- ═══════════════════════════════════════════ -->
  <!-- LEFT: CLAUDE.MD HIERARCHY                   -->
  <!-- ═══════════════════════════════════════════ -->

  <rect x="20" y="130" width="155" height="22" rx="4" fill="#dbeafe"/>
  <text x="30" y="146" font-size="10" font-weight="600" fill="#1e40af">CLAUDE.MD HIERARCHY</text>

  <!-- Global -->
  <rect x="20" y="162" width="310" height="310" rx="10" fill="#eff6ff" stroke="#bfdbfe" stroke-width="1.2"/>
  <rect x="20" y="162" width="310" height="28" rx="10" fill="#dbeafe"/>
  <rect x="20" y="182" width="310" height="8" fill="#dbeafe"/>
  <text x="38" y="183" font-size="11" font-weight="600" fill="#1e40af">CLAUDE.md — user</text>
  <text x="38" y="203" font-size="8" fill="#3b82f6">~/.claude/CLAUDE.md</text>
  <text x="38" y="215" font-size="8" fill="#64748b">personal, all your projects</text>

  <!-- Project -->
  <rect x="40" y="226" width="272" height="228" rx="8" fill="#f0fdf4" stroke="#bbf7d0" stroke-width="1.2"/>
  <rect x="40" y="226" width="272" height="24" rx="8" fill="#dcfce7"/>
  <rect x="40" y="244" width="272" height="6" fill="#dcfce7"/>
  <text x="56" y="243" font-size="10" font-weight="600" fill="#166534">CLAUDE.md — project</text>
  <text x="56" y="260" font-size="8" fill="#22c55e">project/CLAUDE.md</text>

  <!-- Folder -->
  <rect x="60" y="272" width="234" height="166" rx="8" fill="#fefce8" stroke="#fde68a" stroke-width="1.2"/>
  <rect x="60" y="272" width="234" height="24" rx="8" fill="#fef9c3"/>
  <rect x="60" y="290" width="234" height="6" fill="#fef9c3"/>
  <text x="76" y="289" font-size="10" font-weight="600" fill="#854d0e">CLAUDE.md — folder</text>
  <text x="76" y="306" font-size="8" fill="#ca8a04">src/CLAUDE.md</text>
  <text x="76" y="318" font-size="7" fill="#64748b">highest priority</text>

  <!-- Code files -->
  <rect x="80" y="330" width="196" height="44" rx="14" fill="#fff" stroke="#e2e8f0" stroke-width="1.2" filter="url(#s)"/>
  <text x="178" y="351" text-anchor="middle" font-size="11" font-weight="500" fill="#334155">your code files</text>
  <text x="178" y="366" text-anchor="middle" font-size="7" fill="#94a3b8">rules from all 3 layers cascade</text>

  <!-- Other files -->
  <rect x="80" y="386" width="196" height="38" rx="14" fill="#fff" stroke="#e2e8f0" stroke-width="1.2" filter="url(#s)"/>
  <text x="178" y="406" text-anchor="middle" font-size="10" font-weight="500" fill="#334155">other files</text>
  <text x="178" y="418" text-anchor="middle" font-size="7" fill="#94a3b8">global + project rules only</text>

  <!-- Scope arrow -->
  <line x1="10" y1="178" x2="10" y2="458" stroke="#cbd5e1" stroke-width="1"/>
  <polygon points="10,173 7,183 13,183" fill="#cbd5e1"/>
  <text x="6" y="320" font-size="6" fill="#94a3b8" transform="rotate(-90,6,320)">narrower → higher priority</text>


  <!-- ═══════════════════════════════════════════ -->
  <!-- BOTTOM-LEFT: COMMANDS + SETTINGS            -->
  <!-- ═══════════════════════════════════════════ -->

  <rect x="20" y="498" width="150" height="65" rx="8" fill="#faf5ff" stroke="#e9d5ff" stroke-width="1.2" filter="url(#s)"/>
  <rect x="20" y="498" width="150" height="20" rx="8" fill="#f3e8ff"/>
  <rect x="20" y="512" width="150" height="6" fill="#f3e8ff"/>
  <text x="36" y="513" font-size="10" font-weight="600" fill="#7e22ce">Commands</text>
  <text x="36" y="531" font-size="8" fill="#64748b">.claude/commands/*.md</text>
  <text x="36" y="543" font-size="8" fill="#64748b">~/.claude/commands/*.md</text>
  <text x="36" y="557" font-size="7" fill="#a78bfa">prompt templates</text>

  <rect x="182" y="498" width="148" height="65" rx="8" fill="#fff1f2" stroke="#fecdd3" stroke-width="1.2" stroke-dasharray="5,3" filter="url(#s)"/>
  <rect x="182" y="498" width="148" height="20" rx="8" fill="#ffe4e6"/>
  <rect x="182" y="512" width="148" height="6" fill="#ffe4e6"/>
  <text x="198" y="513" font-size="10" font-weight="600" fill="#be123c">Settings</text>
  <text x="260" y="513" font-size="7" fill="#f87171">local only</text>
  <text x="198" y="531" font-size="8" fill="#64748b">.claude/settings.json</text>
  <text x="198" y="543" font-size="8" fill="#64748b">permissions, MCP config</text>
  <text x="198" y="557" font-size="7" fill="#fb7185">⚠ never sent to API</text>


  <!-- ═══════════════════════════════════════════ -->
  <!-- CENTER: CONTEXT                             -->
  <!-- Reordered to match Agent hierarchy:         -->
  <!--   message, system, turns, files+skills,     -->
  <!--   tools, permissions, params                -->
  <!-- ═══════════════════════════════════════════ -->

  <rect x="380" y="172" width="300" height="590" rx="10" fill="#fff" stroke="#334155" stroke-width="2" filter="url(#s)"/>
  <rect x="380" y="172" width="300" height="28" rx="10" fill="#334155"/>
  <rect x="380" y="192" width="300" height="8" fill="#334155"/>
  <text x="395" y="193" font-size="12" font-weight="600" fill="#fff">CONTEXT</text>
  <text x="478" y="193" font-size="9" fill="#94a3b8">the full API request body</text>

  <!-- ① message -->
  <rect x="395" y="210" width="270" height="50" rx="6" fill="#f8fafc" stroke="#e2e8f0" stroke-width="1" filter="url(#s)"/>
  <circle cx="408" cy="226" r="7" fill="#6366f1"/>
  <text x="408" y="230" text-anchor="middle" font-size="8" fill="#fff" font-weight="700">1</text>
  <text x="422" y="230" font-size="11" font-weight="600" fill="#1e293b">message</text>
  <text x="422" y="244" font-size="8" fill="#64748b">user prompt or expanded /command</text>
  <text x="405" y="256" font-size="7" fill="#94a3b8" font-family="Consolas, monospace">{ role: "user", content: "..." }</text>

  <!-- ② system prompt -->
  <rect x="395" y="268" width="270" height="56" rx="6" fill="#eff6ff" stroke="#bfdbfe" stroke-width="1" filter="url(#s)"/>
  <circle cx="408" cy="286" r="7" fill="#3b82f6"/>
  <text x="408" y="290" text-anchor="middle" font-size="8" fill="#fff" font-weight="700">2</text>
  <text x="422" y="290" font-size="11" font-weight="600" fill="#1e293b">system prompt</text>
  <text x="422" y="304" font-size="8" fill="#64748b">Claude Code prompt + agent instructions</text>
  <text x="405" y="318" font-size="7" fill="#94a3b8" font-family="Consolas, monospace">"system": "...base + agent..."</text>

  <!-- ③ previous turns -->
  <rect x="395" y="332" width="270" height="50" rx="6" fill="#f8fafc" stroke="#e2e8f0" stroke-width="1" filter="url(#s)"/>
  <circle cx="408" cy="348" r="7" fill="#6366f1"/>
  <text x="408" y="352" text-anchor="middle" font-size="8" fill="#fff" font-weight="700">3</text>
  <text x="422" y="352" font-size="11" font-weight="600" fill="#1e293b">previous turns</text>
  <text x="422" y="366" font-size="8" fill="#64748b">history + tool results from prior loops</text>
  <text x="405" y="378" font-size="7" fill="#94a3b8" font-family="Consolas, monospace">user + assistant + tool_result</text>

  <!-- ④ file + skill contents  ← MOVED UP -->
  <rect x="395" y="390" width="270" height="56" rx="6" fill="#ecfdf5" stroke="#a7f3d0" stroke-width="1" filter="url(#s)"/>
  <circle cx="408" cy="408" r="7" fill="#059669"/>
  <text x="408" y="412" text-anchor="middle" font-size="8" fill="#fff" font-weight="700">4</text>
  <text x="422" y="412" font-size="11" font-weight="600" fill="#1e293b">file + skill + CLAUDE.md</text>
  <text x="422" y="426" font-size="8" fill="#64748b">Read results + skills + CLAUDE.md (user msg)</text>
  <text x="405" y="440" font-size="7" fill="#94a3b8" font-family="Consolas, monospace">{ type: "tool_result", content: "..." }</text>

  <!-- ⑤ tools  ← MOVED DOWN -->
  <rect x="395" y="454" width="270" height="56" rx="6" fill="#f0fdf4" stroke="#bbf7d0" stroke-width="1" filter="url(#s)"/>
  <circle cx="408" cy="472" r="7" fill="#22c55e"/>
  <text x="408" y="476" text-anchor="middle" font-size="8" fill="#fff" font-weight="700">5</text>
  <text x="422" y="476" font-size="11" font-weight="600" fill="#1e293b">tools</text>
  <text x="422" y="490" font-size="8" fill="#64748b">built-in + MCP schemas (filtered by agent)</text>
  <text x="405" y="504" font-size="7" fill="#94a3b8" font-family="Consolas, monospace">"tools": [{ name, input_schema }, ...]</text>

  <!-- permissions (dashed) -->
  <rect x="395" y="520" width="270" height="34" rx="6" fill="#fff1f2" stroke="#fecdd3" stroke-width="1" stroke-dasharray="5,3"/>
  <text x="422" y="540" font-size="10" fill="#be123c">permissions</text>
  <text x="505" y="540" font-size="8" fill="#94a3b8">NOT sent · enforced locally</text>

  <!-- ⑥ model params -->
  <rect x="395" y="562" width="270" height="36" rx="6" fill="#f8fafc" stroke="#e2e8f0" stroke-width="1"/>
  <circle cx="408" cy="577" r="7" fill="#64748b"/>
  <text x="408" y="581" text-anchor="middle" font-size="8" fill="#fff" font-weight="700">6</text>
  <text x="422" y="581" font-size="11" font-weight="600" fill="#1e293b">model + params</text>
  <text x="405" y="594" font-size="7" fill="#94a3b8" font-family="Consolas, monospace">model, max_tokens, stream</text>

  <!-- POST bar -->
  <rect x="395" y="606" width="270" height="24" rx="6" fill="#334155"/>
  <text x="530" y="622" text-anchor="middle" font-size="9" fill="#fff" font-weight="500">POST  api.anthropic.com/v1/messages</text>


  <!-- ═══════════════════════════════════════════ -->
  <!-- RIGHT: AGENT HIERARCHY                      -->
  <!-- ═══════════════════════════════════════════ -->

  <rect x="730" y="130" width="140" height="22" rx="4" fill="#ffedd5"/>
  <text x="740" y="146" font-size="10" font-weight="600" fill="#c2410c">AGENT HIERARCHY</text>

  <!-- Agent outer -->
  <rect x="730" y="162" width="520" height="500" rx="10" fill="#fff7ed" stroke="#fed7aa" stroke-width="1.5"/>
  <rect x="730" y="162" width="520" height="30" rx="10" fill="#ffedd5"/>
  <rect x="730" y="184" width="520" height="8" fill="#ffedd5"/>
  <text x="750" y="183" font-size="13" font-weight="700" fill="#c2410c">Agent</text>
  <text x="815" y="183" font-size="10" fill="#ea580c">the active mode / persona</text>
  <text x="750" y="207" font-size="8" fill="#64748b">defines instructions, skills, and allowed tools</text>
  <text x="750" y="219" font-size="8" fill="#94a3b8">e.g. "code-reviewer", "docs-writer", "default"</text>

  <!-- Agent > Instructions  (y ≈ 230–280 → aligns with system prompt 268–324) -->
  <rect x="750" y="234" width="480" height="50" rx="6" fill="#fff" stroke="#fed7aa" stroke-width="1" filter="url(#s)"/>
  <rect x="758" y="242" width="8" height="34" rx="4" fill="#c2410c"/>
  <text x="778" y="258" font-size="11" font-weight="600" fill="#334155">instructions</text>
  <text x="778" y="274" font-size="8" fill="#64748b">agent-specific rules &amp; personality → replaces system prompt</text>

  <!-- Agent > Skills  (y ≈ 296–418 → aligns with file+skill 390–446) -->
  <rect x="750" y="296" width="480" height="118" rx="8" fill="#ecfdf5" stroke="#a7f3d0" stroke-width="1.2"/>
  <rect x="750" y="296" width="480" height="24" rx="8" fill="#d1fae5"/>
  <rect x="750" y="314" width="480" height="6" fill="#d1fae5"/>
  <text x="770" y="314" font-size="10" font-weight="600" fill="#065f46">skills</text>
  <text x="815" y="314" font-size="8" fill="#059669">domain knowledge, loaded when relevant</text>

  <rect x="770" y="332" width="130" height="66" rx="6" fill="#fff" stroke="#a7f3d0" stroke-width="1" filter="url(#s)"/>
  <text x="835" y="354" text-anchor="middle" font-size="10" font-weight="600" fill="#334155">testing</text>
  <text x="835" y="368" text-anchor="middle" font-size="8" fill="#64748b">test strategies</text>
  <text x="835" y="380" text-anchor="middle" font-size="8" fill="#64748b">mocking patterns</text>
  <text x="835" y="392" text-anchor="middle" font-size="7" fill="#86efac">SKILL.md</text>

  <rect x="910" y="332" width="130" height="66" rx="6" fill="#fff" stroke="#a7f3d0" stroke-width="1" filter="url(#s)"/>
  <text x="975" y="354" text-anchor="middle" font-size="10" font-weight="600" fill="#334155">API design</text>
  <text x="975" y="368" text-anchor="middle" font-size="8" fill="#64748b">REST conventions</text>
  <text x="975" y="380" text-anchor="middle" font-size="8" fill="#64748b">error handling</text>
  <text x="975" y="392" text-anchor="middle" font-size="7" fill="#86efac">SKILL.md</text>

  <rect x="1050" y="332" width="130" height="66" rx="6" fill="#fff" stroke="#a7f3d0" stroke-width="1" filter="url(#s)"/>
  <text x="1115" y="365" text-anchor="middle" font-size="18" fill="#a7f3d0">···</text>
  <text x="1115" y="392" text-anchor="middle" font-size="7" fill="#86efac">SKILL.md</text>

  <!-- Agent > Allowed Tools  (y ≈ 426–558 → aligns with tools 454–510) -->
  <rect x="750" y="426" width="480" height="130" rx="8" fill="#f0fdf4" stroke="#bbf7d0" stroke-width="1.2"/>
  <rect x="750" y="426" width="480" height="24" rx="8" fill="#dcfce7"/>
  <rect x="750" y="444" width="480" height="6" fill="#dcfce7"/>
  <text x="770" y="443" font-size="10" font-weight="600" fill="#166534">allowed tools</text>
  <text x="865" y="443" font-size="8" fill="#22c55e">agent controls which tools are available</text>

  <!-- Built-in row -->
  <text x="770" y="472" font-size="8" font-weight="600" fill="#64748b">BUILT-IN</text>

  <rect x="832" y="458" width="68" height="34" rx="4" fill="#fff" stroke="#bbf7d0" stroke-width="1" filter="url(#s)"/>
  <text x="866" y="479" text-anchor="middle" font-size="10" font-weight="600" fill="#334155">Read</text>
  <text x="866" y="489" text-anchor="middle" font-size="6" fill="#86efac">built-in</text>

  <rect x="906" y="458" width="68" height="34" rx="4" fill="#fff" stroke="#bbf7d0" stroke-width="1" filter="url(#s)"/>
  <text x="940" y="479" text-anchor="middle" font-size="10" font-weight="600" fill="#334155">Edit</text>
  <text x="940" y="489" text-anchor="middle" font-size="6" fill="#86efac">built-in</text>

  <rect x="980" y="458" width="68" height="34" rx="4" fill="#fff" stroke="#bbf7d0" stroke-width="1" filter="url(#s)"/>
  <text x="1014" y="479" text-anchor="middle" font-size="10" font-weight="600" fill="#334155">Bash</text>
  <text x="1014" y="489" text-anchor="middle" font-size="6" fill="#86efac">built-in</text>

  <rect x="1054" y="458" width="68" height="34" rx="4" fill="#fff" stroke="#bbf7d0" stroke-width="1" filter="url(#s)"/>
  <text x="1088" y="479" text-anchor="middle" font-size="10" font-weight="600" fill="#334155">Grep</text>
  <text x="1088" y="489" text-anchor="middle" font-size="6" fill="#86efac">built-in</text>

  <rect x="1128" y="458" width="86" height="34" rx="4" fill="#fff7ed" stroke="#fed7aa" stroke-width="1" filter="url(#s)"/>
  <text x="1171" y="477" text-anchor="middle" font-size="9" font-weight="600" fill="#334155">Agent</text>
  <text x="1171" y="489" text-anchor="middle" font-size="6" fill="#fb923c">built-in</text>

  <!-- MCP row -->
  <text x="770" y="517" font-size="8" font-weight="600" fill="#64748b">MCP</text>

  <rect x="832" y="504" width="80" height="34" rx="4" fill="#eef2ff" stroke="#c7d2fe" stroke-width="1" filter="url(#s)"/>
  <text x="872" y="523" text-anchor="middle" font-size="9" font-weight="600" fill="#334155">get_users</text>
  <text x="872" y="534" text-anchor="middle" font-size="6" fill="#a5b4fc">GitHub</text>

  <rect x="920" y="504" width="80" height="34" rx="4" fill="#eef2ff" stroke="#c7d2fe" stroke-width="1" filter="url(#s)"/>
  <text x="960" y="523" text-anchor="middle" font-size="9" font-weight="600" fill="#334155">create_pr</text>
  <text x="960" y="534" text-anchor="middle" font-size="6" fill="#a5b4fc">GitHub</text>

  <rect x="1008" y="504" width="80" height="34" rx="4" fill="#eef2ff" stroke="#c7d2fe" stroke-width="1" filter="url(#s)"/>
  <text x="1048" y="523" text-anchor="middle" font-size="9" font-weight="600" fill="#334155">db_query</text>
  <text x="1048" y="534" text-anchor="middle" font-size="6" fill="#a5b4fc">Database</text>

  <rect x="1096" y="504" width="80" height="34" rx="4" fill="#eef2ff" stroke="#c7d2fe" stroke-width="1" filter="url(#s)"/>
  <text x="1136" y="524" text-anchor="middle" font-size="16" fill="#a5b4fc">···</text>

  <!-- SubAgent (nested inside Agent, at bottom) -->
  <rect x="750" y="570" width="480" height="76" rx="8" fill="#fff7ed" stroke="#fdba74" stroke-width="1.5" stroke-dasharray="6,3"/>
  <rect x="750" y="570" width="480" height="22" rx="8" fill="#fed7aa"/>
  <rect x="750" y="586" width="480" height="6" fill="#fed7aa"/>
  <text x="770" y="586" font-size="10" font-weight="600" fill="#c2410c">↳ Subagent</text>
  <text x="860" y="586" font-size="8" fill="#ea580c">spawned via Agent tool — independent context</text>

  <text x="770" y="612" font-size="8" fill="#64748b">gets its own:</text>
  <rect x="840" y="602" width="78" height="18" rx="4" fill="#fff" stroke="#fed7aa" stroke-width="0.8"/>
  <text x="879" y="615" text-anchor="middle" font-size="7" fill="#c2410c">instructions</text>
  <rect x="924" y="602" width="54" height="18" rx="4" fill="#ecfdf5" stroke="#a7f3d0" stroke-width="0.8"/>
  <text x="951" y="615" text-anchor="middle" font-size="7" fill="#065f46">skills</text>
  <rect x="984" y="602" width="54" height="18" rx="4" fill="#f0fdf4" stroke="#bbf7d0" stroke-width="0.8"/>
  <text x="1011" y="615" text-anchor="middle" font-size="7" fill="#166534">tools</text>
  <rect x="1044" y="602" width="68" height="18" rx="4" fill="#f8fafc" stroke="#e2e8f0" stroke-width="0.8"/>
  <text x="1078" y="615" text-anchor="middle" font-size="7" fill="#64748b">own context</text>
  <text x="1120" y="615" font-size="7" fill="#94a3b8">⚠ cannot nest</text>


  <!-- ═══════════════════════════════════════════ -->
  <!-- BOTTOM: CLAUDE API                          -->
  <!-- ═══════════════════════════════════════════ -->

  <rect x="730" y="690" width="520" height="326" rx="10" fill="#fefce8" stroke="#854d0e" stroke-width="2" filter="url(#s)"/>
  <rect x="730" y="690" width="520" height="28" rx="10" fill="#854d0e"/>
  <rect x="730" y="712" width="520" height="6" fill="#854d0e"/>
  <text x="750" y="711" font-size="13" font-weight="700" fill="#fff">Claude API</text>
  <text x="860" y="711" font-size="8" fill="#fde68a">api.anthropic.com/v1/messages</text>

  <!-- Pipeline steps -->
  <rect x="750" y="740" width="480" height="24" rx="4" fill="#fff" stroke="#fde68a" stroke-width="0.8"/>
  <text x="760" y="756" font-size="8" fill="#334155">❶ Read <tspan font-weight="600" fill="#1e40af">system prompt</tspan> (base prompt + agent instructions)</text>

  <rect x="750" y="768" width="480" height="24" rx="4" fill="#fff" stroke="#fde68a" stroke-width="0.8"/>
  <text x="760" y="784" font-size="8" fill="#334155">❷ Read <tspan font-weight="600" fill="#6366f1">conversation</tspan> (CLAUDE.md + messages + tool results + skills)</text>

  <rect x="750" y="796" width="480" height="24" rx="4" fill="#fff" stroke="#fde68a" stroke-width="0.8"/>
  <text x="760" y="812" font-size="8" fill="#334155">❸ See <tspan font-weight="600" fill="#166534">tools[]</tspan> (built-in + MCP, filtered by agent)</text>

  <rect x="750" y="824" width="480" height="24" rx="4" fill="#fff" stroke="#fde68a" stroke-width="0.8"/>
  <text x="760" y="840" font-size="8" fill="#334155">❹ Think → output <tspan font-weight="600" fill="#166534">text</tspan> and/or <tspan font-weight="600" fill="#3730a3">tool_use</tspan></text>

  <!-- Stop reasons -->
  <rect x="750" y="856" width="230" height="30" rx="5" fill="#eef2ff" stroke="#c7d2fe" stroke-width="0.8"/>
  <text x="760" y="870" font-size="7" fill="#334155" font-family="Consolas, monospace">stop: tool_use</text>
  <text x="760" y="881" font-size="6" fill="#64748b">→ local agent executes → loop</text>

  <rect x="990" y="856" width="240" height="30" rx="5" fill="#f0fdf4" stroke="#22c55e" stroke-width="0.8"/>
  <text x="1000" y="870" font-size="7" fill="#334155" font-family="Consolas, monospace">stop: end_turn</text>
  <text x="1000" y="881" font-size="6" fill="#64748b">→ final answer → 👤 human ✓</text>

  <!-- Agentic loop bar -->
  <rect x="750" y="894" width="480" height="24" rx="5" fill="#334155"/>
  <text x="990" y="910" text-anchor="middle" font-size="8" fill="#fff">🔄 tool_use → local agent executes → tool_result → POST again</text>

  <!-- Final answer -->
  <rect x="750" y="924" width="480" height="20" rx="10" fill="#f1f5f9" stroke="#e2e8f0" stroke-width="0.8"/>
  <text x="990" y="938" text-anchor="middle" font-size="7" fill="#64748b">end_turn → final answer delivered back to 👤 human</text>


  <!-- ═══════════════════════════════════════════ -->
  <!-- ARROWS (clean, no crossings)                -->
  <!-- ═══════════════════════════════════════════ -->

  <!-- LEFT → CENTER: CLAUDE.md → file+skill+CLAUDE.md block ④ -->
  <!--   CLAUDE.md is delivered as user message, NOT in system prompt -->
  <line x1="330" y1="350" x2="390" y2="418" stroke="#3b82f6" stroke-width="1.5" marker-end="url(#a)"/>
  <text x="340" y="370" font-size="7" fill="#3b82f6">as user</text>
  <text x="340" y="380" font-size="7" fill="#3b82f6">message</text>

  <!-- Commands → message (curves up to reach message block, stays left of context) -->
  <path d="M 170 498 C 170 470, 350 235, 390 235" stroke="#7e22ce" stroke-width="1" fill="none" marker-end="url(#a)"/>
  <text x="220" y="460" font-size="7" fill="#a78bfa">expands into message</text>

  <!-- Settings → permissions (curves slightly, stays left of context) -->
  <path d="M 330 535 C 360 535, 380 537, 390 537" stroke="#f87171" stroke-width="0.8" fill="none" stroke-dasharray="4,3" marker-end="url(#ad)"/>

  <!-- Files → file+skill contents (dashed, stays left) -->
  <path d="M 294 395 C 330 400, 375 418, 390 418" stroke="#ca8a04" stroke-width="0.8" fill="none" stroke-dasharray="4,3" marker-end="url(#ad)"/>
  <text x="300" y="394" font-size="6" fill="#ca8a04">via Read tool</text>

  <!-- RIGHT → CENTER: 3 horizontal arrows, no crossings! -->

  <!-- Agent instructions → system prompt  (horizontal, ≈ y=260 → y=296) -->
  <line x1="750" y1="260" x2="670" y2="296" stroke="#c2410c" stroke-width="1.5" marker-end="url(#a)"/>

  <!-- Agent skills → file+skill contents  (horizontal, ≈ y=365 → y=418) -->
  <line x1="750" y1="370" x2="670" y2="418" stroke="#059669" stroke-width="1.5" marker-end="url(#a)"/>

  <!-- Agent tools → tools block  (horizontal, ≈ y=485 → y=482) -->
  <line x1="750" y1="485" x2="670" y2="482" stroke="#22c55e" stroke-width="1.5" marker-end="url(#a)"/>

  <!-- Context → Claude API (diagonal down-right) -->
  <path d="M 670 620 C 700 650, 720 680, 725 690" stroke="#334155" stroke-width="2.5" fill="none" marker-end="url(#a)"/>
  <text x="688" y="660" font-size="9" font-weight="600" fill="#334155">POST</text>

  <!-- Agentic loop: API → back up to context (below context, curves left) -->
  <path d="M 750 894 C 700 894, 365 800, 365 650 C 365 638, 375 633, 390 630"
        stroke="#64748b" stroke-width="1.3" fill="none" stroke-dasharray="6,3" marker-end="url(#a)"/>
  <text x="540" y="870" font-size="7" fill="#64748b">tool_result → next loop</text>

  <!-- end_turn → back to human (left side path, outside all blocks) -->
  <path d="M 750 944 C 340 960, 340 100, 415 100"
        stroke="#334155" stroke-width="1" fill="none" stroke-dasharray="5,3" marker-end="url(#ad)"/>
  <text x="348" y="100" font-size="7" fill="#94a3b8">final answer → 👤</text>

  <!-- ═══════════════════════════════════════════ -->
  <!-- LEGEND                                      -->
  <!-- ═══════════════════════════════════════════ -->
  <rect x="20" y="588" width="310" height="24" rx="6" fill="#f1f5f9" stroke="#e2e8f0" stroke-width="0.8"/>
  <line x1="34" y1="600" x2="58" y2="600" stroke="#64748b" stroke-width="1.3"/>
  <text x="63" y="604" font-size="7" fill="#64748b">sent to API</text>
  <line x1="130" y1="600" x2="154" y2="600" stroke="#94a3b8" stroke-width="1" stroke-dasharray="4,3"/>
  <text x="159" y="604" font-size="7" fill="#94a3b8">local / indirect</text>
  <rect x="238" y="594" width="36" height="12" rx="3" fill="none" stroke="#fecdd3" stroke-width="1" stroke-dasharray="3,2"/>
  <text x="278" y="604" font-size="7" fill="#94a3b8">never sent</text>

</svg>
